<svg width="16" height="14" viewBox="0 0 16 14" fill="none" xmlns="http://www.w3.org/2000/svg">
<g clip-path="url(#clip0_139_20)">
<path d="M14.8375 0.155647L0.626521 5.80081C0.626521 5.80081 -0.0476661 6.03199 0.00541955 6.4621C0.0585051 6.89221 0.605287 7.09113 0.605287 7.09113L4.17795 8.31156L4.18326 8.31694V8.31156L12.7619 2.79006C12.7619 2.79006 13.2556 2.4836 13.2397 2.79006C13.2397 2.79006 13.3299 2.84382 13.0645 3.09651C12.799 3.3492 6.32261 9.24167 6.32261 9.24167L6.31199 9.35457L12.1408 13.8815C13.1123 14.3116 13.4679 13.4137 13.4679 13.4137L16.0001 0.494356C16.0001 -0.365859 14.8322 0.155647 14.8375 0.155647Z" fill="#7E8273"/>
<path d="M8.54148 11.0862L6.23225 13.2206C6.23225 13.2206 6.05176 13.3604 5.85535 13.2744L6.29596 9.31201" fill="#7E8273"/>
</g>
<defs>
<clipPath id="clip0_139_20">
<rect width="16" height="14" fill="white"/>
</clipPath>
</defs>
</svg>
