<svg width="16" height="16" viewBox="0 0 16 16" fill="none" xmlns="http://www.w3.org/2000/svg">
<g clip-path="url(#clip0_139_27)">
<path d="M13.9581 8.9628C13.5619 12.2072 11.1696 12.4147 10.7276 12.5628C10.5448 12.6221 8.79241 13.0517 6.61336 12.9184L4.23622 15.4813V12.5332H4.22098C1.03622 11.6443 1.14288 8.34058 1.17336 6.60724C1.20384 4.87391 1.53907 3.45169 2.51431 2.48872C4.26669 0.918353 7.86288 1.15539 7.86288 1.15539C10.9105 1.17021 12.3581 2.07391 12.6934 2.38502C13.8057 3.33317 14.3848 5.61465 13.9581 8.9628ZM13.5162 1.55539C13.12 1.19984 11.5048 0.0294646 7.9086 0.0146498C7.9086 0.0146498 3.67241 -0.237202 1.60003 1.64428C0.457169 2.78502 0.0457407 4.45909 0.0152645 6.53317C-0.0304498 8.60724 -0.076164 12.5035 3.68765 13.5554V15.1702C3.68765 15.1702 3.65717 15.8221 4.09907 15.9554C4.61717 16.1184 4.92193 15.6147 5.42479 15.0813C5.69907 14.785 6.08003 14.3554 6.35431 14.0295C8.92955 14.2517 10.9105 13.748 11.1391 13.6739C11.6572 13.5109 14.5981 13.1258 15.0857 9.24428C15.5734 5.24428 14.8419 2.69613 13.5162 1.55539Z" fill="#7E8273"/>
<path d="M11.2153 9.45182C11.2153 9.45182 10.7277 9.05182 10.4991 8.87405C10.2705 8.71108 9.92004 8.48886 9.72195 8.38516C9.37147 8.19256 9.00576 8.31108 8.85338 8.50368L8.54861 8.88886C8.39623 9.08145 8.13719 9.05182 8.07623 9.03701C7.61909 8.91849 7.13147 8.65182 6.62862 8.17775C6.12576 7.70368 5.821 7.19997 5.71433 6.69627L5.69909 6.66664C5.66862 6.45923 5.69909 6.35553 5.79052 6.20738L5.80576 6.19256C6.01909 5.99997 6.40004 5.77775 6.461 5.55553C6.61338 5.17034 5.9429 4.37034 5.85147 4.23701C5.85147 4.23701 5.36385 3.61479 5.19623 3.49627C5.01338 3.34812 4.72385 3.25923 4.43433 3.43701H4.41909C3.581 3.98516 3.29147 4.29627 3.36766 4.77034L3.41338 4.96293C3.84004 6.25182 4.64766 7.64442 5.86671 8.87405C7.07052 10.074 8.381 10.8 9.661 11.3037C9.99623 11.4074 10.3467 11.3185 10.6972 11.0222C10.9715 10.7703 11.1848 10.5037 11.3372 10.2222C11.5048 9.9259 11.4439 9.64442 11.2153 9.45182Z" fill="#7E8273"/>
<path d="M9.21909 6.60726C9.17337 6.60726 9.12766 6.56281 9.12766 6.51837C9.11242 6.17763 9.02099 5.92578 8.85337 5.748C8.68576 5.57022 8.44195 5.48133 8.12195 5.46652C8.07623 5.46652 8.03052 5.42207 8.03052 5.36282C8.03052 5.30356 8.07623 5.27393 8.13718 5.27393C8.51814 5.28874 8.80766 5.40726 9.00576 5.61467C9.20385 5.82207 9.31052 6.11837 9.34099 6.50356C9.32576 6.56282 9.28004 6.60726 9.21909 6.60726Z" fill="#7E8273"/>
<path d="M10.1638 6.93294C10.1029 6.93294 10.0724 6.88849 10.0724 6.82923C10.0876 6.19219 9.88952 5.64405 9.49333 5.21442C9.29523 4.99219 9.05142 4.82923 8.77714 4.71071C8.50285 4.59219 8.18285 4.51812 7.81714 4.48849C7.77142 4.48849 7.72571 4.44405 7.72571 4.38479C7.72571 4.32553 7.77142 4.2959 7.83237 4.2959C8.59428 4.35516 9.2038 4.62182 9.63047 5.08108C10.0571 5.55516 10.2705 6.13294 10.2552 6.82923C10.2705 6.88849 10.2248 6.93294 10.1638 6.93294Z" fill="#7E8273"/>
<path d="M11.1391 7.30353C11.0934 7.30353 11.0477 7.25909 11.0477 7.21464C11.0477 6.65168 10.9563 6.13316 10.7886 5.68872C10.621 5.24427 10.362 4.85909 10.0267 4.53316C9.6915 4.20724 9.31054 3.95539 8.89912 3.79242C8.48769 3.62946 8.01531 3.54057 7.51245 3.54057C7.46673 3.54057 7.42102 3.49613 7.42102 3.45168C7.42102 3.39242 7.46673 3.36279 7.51245 3.36279C8.56388 3.37761 9.44769 3.71835 10.1639 4.41464C10.5144 4.75539 10.7886 5.1702 10.9715 5.64427C11.1544 6.11835 11.2458 6.65168 11.2458 7.24427C11.2458 7.25909 11.2001 7.30353 11.1391 7.30353Z" fill="#7E8273"/>
</g>
<defs>
<clipPath id="clip0_139_27">
<rect width="15.2381" height="16" fill="white"/>
</clipPath>
</defs>
</svg>
