<svg width="232" height="55" viewBox="0 0 232 55" fill="none" xmlns="http://www.w3.org/2000/svg">
<g clip-path="url(#clip0_122_1945)">
<path fill-rule="evenodd" clip-rule="evenodd" d="M157.093 2.90865C152.329 1.1899 147.432 0.264423 142.932 0C146.902 4.75961 148.888 9.38702 153.52 16.5264C155.505 19.1707 158.549 20.0962 163.181 17.5841C166.489 21.4183 168.739 23.6659 168.739 26.0457C169.004 28.4255 169.004 30.8053 168.739 33.1851C169.93 33.1851 170.989 33.1851 172.18 33.1851C171.783 31.4663 171.916 27.3678 172.445 26.4423C173.371 24.1947 174.562 22.476 175.754 20.625C177.871 22.0793 183.827 23.137 186.606 16.9231C188.326 10.5769 189.517 8.72596 190.841 5.55288C181.18 8.46154 172.18 10.8413 175.224 20.0962C174.165 20.8894 172.842 23.5336 170.857 25.5168C169.798 19.3029 170.327 17.3197 170.989 14.8077C168.607 16.6587 168.739 21.0216 169.136 23.0048C167.681 20.8894 165.828 18.774 164.24 16.6587C167.945 9.38702 163.843 5.28846 157.093 2.90865Z" fill="#889F8B"/>
<path d="M0 25.781H15.6167V31.0694H5.42613V36.2257H15.6167V41.5141H5.42613V49.0502H15.6167V54.3386H0V25.781ZM21.0428 25.781H26.8659C30.0422 25.781 32.2921 26.0454 33.6155 26.5742C34.939 27.1031 35.9977 28.0285 36.7918 29.3507C37.5858 30.6728 37.9829 32.2593 37.9829 33.9781C37.9829 35.829 37.5858 37.4156 36.6594 38.7377C35.733 40.0598 34.4096 40.9853 32.5568 41.6463L39.3063 54.3386H33.3508L26.9983 42.3074H26.4689V54.4709H21.0428V25.781ZM26.4689 36.8867H28.1894C29.9099 36.8867 31.101 36.6223 31.7627 36.2257C32.4244 35.829 32.6891 35.0358 32.6891 33.9781C32.6891 33.317 32.5568 32.7882 32.1597 32.3915C31.895 31.8627 31.3657 31.5983 30.8363 31.3338C30.3069 31.0694 29.2481 31.0694 27.7924 31.0694H26.4689V36.8867ZM52.5408 25.781H57.9669L68.9515 54.3386H63.2607L61.0108 48.3891H49.2322L46.9823 54.3386H41.2915L52.5408 25.781ZM55.32 33.317L51.482 43.1007H59.158L55.32 33.317ZM99.7878 30.4084L95.9498 34.2425C93.5676 31.7305 90.656 30.4084 87.4797 30.4084C84.7005 30.4084 82.3183 31.3338 80.4655 33.1848C78.6126 35.0358 77.5539 37.2834 77.5539 39.9276C77.5539 42.704 78.4803 44.9516 80.4655 46.9348C82.4506 48.918 84.8328 49.8435 87.7444 49.8435C89.5973 49.8435 91.1854 49.4468 92.5088 48.6535C93.8323 47.8603 94.891 46.6704 95.6851 44.9516H87.3474V39.7954H101.773V40.9853C101.773 43.4973 101.111 45.8771 99.7878 48.1247C98.4643 50.3723 96.7439 52.091 94.7587 53.281C92.6412 54.4709 90.259 54.9997 87.4797 54.9997C84.5682 54.9997 81.9213 54.3386 79.5391 53.0165C77.1569 51.6944 75.304 49.8435 73.9806 47.4636C72.6572 45.0838 71.9954 42.5718 71.9954 39.7954C71.9954 35.9612 73.1865 32.7882 75.7011 29.8795C78.6127 26.5742 82.583 24.8555 87.3474 24.8555C89.8619 24.8555 92.1118 25.2521 94.3617 26.1776C96.2145 27.2353 97.935 28.5574 99.7878 30.4084ZM115.537 25.781H120.963L131.947 54.3386H126.257L124.007 48.3891H112.228L109.978 54.3386H104.287L115.537 25.781ZM118.184 33.317L114.346 43.1007H122.022L118.184 33.317ZM136.58 25.781H142.403C145.579 25.781 147.829 26.0454 149.152 26.5742C150.476 27.1031 151.534 28.0285 152.329 29.3507C153.123 30.6728 153.52 32.2593 153.52 33.9781C153.52 35.829 153.123 37.4156 152.196 38.7377C151.27 40.0598 149.946 40.9853 148.094 41.6463L154.843 54.3386H148.888L142.403 42.1752H141.873V54.3386H136.447V25.781H136.58ZM142.006 36.8867H143.726C145.447 36.8867 146.638 36.6223 147.299 36.2257C147.961 35.829 148.226 35.0358 148.226 33.9781C148.226 33.317 148.094 32.7882 147.697 32.3915C147.432 31.8627 146.902 31.5983 146.373 31.3338C145.844 31.0694 144.785 31.0694 143.329 31.0694H141.873V36.8867H142.006Z" fill="white"/>
<path d="M185.547 32.3916V38.87C185.547 42.9685 185.018 46.1416 183.959 48.1248C182.9 50.1079 181.312 51.8267 178.93 53.1488C176.548 54.4709 173.901 55.132 170.857 55.132C168.607 55.132 166.622 54.7354 164.769 54.0743C162.916 53.281 161.328 52.3555 160.137 51.0334C158.946 49.7113 158.019 48.3892 157.622 46.8027C157.093 45.3483 156.961 42.7041 156.961 39.0022V32.5238H185.547V32.3916ZM180.253 37.8123H162.254V40.3243C162.254 42.8363 162.519 44.5551 163.048 45.745C163.578 46.8027 164.637 47.7281 165.96 48.5214C167.284 49.1825 169.004 49.5791 170.989 49.5791C174.033 49.5791 176.415 48.7858 178.003 47.0671C179.459 45.4805 180.253 43.1007 180.253 39.6632V37.8123Z" fill="white"/>
<path d="M188.459 26.4424H204.075V31.7308H193.885V36.8871H204.075V42.1756H193.885V49.7116H204.075V55.0001H188.459V26.4424ZM209.104 26.4424H214.266L226.574 45.2164V26.4424H232V55.0001H226.839L214.531 36.226V55.0001H209.104V26.4424Z" fill="white"/>
</g>
<defs>
<clipPath id="clip0_122_1945">
<rect width="232" height="55" fill="white"/>
</clipPath>
</defs>
</svg>
