<svg width="232" height="55" viewBox="0 0 232 55" fill="none" xmlns="http://www.w3.org/2000/svg">
<g clip-path="url(#clip0_24_5)">
<path fill-rule="evenodd" clip-rule="evenodd" d="M157.093 2.90865C152.329 1.1899 147.432 0.264423 142.932 0C146.902 4.75961 148.888 9.38702 153.52 16.5264C155.505 19.1707 158.549 20.0962 163.181 17.5841C166.489 21.4183 168.739 23.6659 168.739 26.0457C169.004 28.4255 169.004 30.8053 168.739 33.1851C169.93 33.1851 170.989 33.1851 172.18 33.1851C171.783 31.4663 171.916 27.3678 172.445 26.4423C173.371 24.1947 174.562 22.476 175.754 20.625C177.871 22.0793 183.827 23.137 186.606 16.9231C188.326 10.5769 189.517 8.72596 190.841 5.55288C181.18 8.46154 172.18 10.8413 175.224 20.0962C174.165 20.8894 172.842 23.5336 170.857 25.5168C169.798 19.3029 170.327 17.3197 170.989 14.8077C168.607 16.6587 168.739 21.0216 169.136 23.0048C167.681 20.8894 165.828 18.774 164.24 16.6587C167.945 9.38702 163.843 5.28846 157.093 2.90865Z" fill="#889F8B"/>
<path d="M0 25.7812H15.6167V31.0697H5.42613V36.2259H15.6167V41.5144H5.42613V49.0504H15.6167V54.3389H0V25.7812ZM21.0428 25.7812H26.8659C30.0422 25.7812 32.2921 26.0456 33.6155 26.5745C34.939 27.1033 35.9977 28.0288 36.7918 29.3509C37.5858 30.673 37.9829 32.2596 37.9829 33.9783C37.9829 35.8293 37.5858 37.4158 36.6594 38.7379C35.733 40.06 34.4096 40.9855 32.5568 41.6466L39.3063 54.3389H33.3508L26.9983 42.3076H26.4689V54.4711H21.0428V25.7812ZM26.4689 36.887H28.1894C29.9099 36.887 31.101 36.6225 31.7627 36.2259C32.4244 35.8293 32.6891 35.036 32.6891 33.9783C32.6891 33.3173 32.5568 32.7884 32.1597 32.3918C31.895 31.8629 31.3657 31.5985 30.8363 31.3341C30.3069 31.0697 29.2481 31.0697 27.7924 31.0697H26.4689V36.887ZM52.5408 25.7812H57.9669L68.9515 54.3389H63.2607L61.0108 48.3894H49.2322L46.9823 54.3389H41.2915L52.5408 25.7812ZM55.32 33.3173L51.482 43.1009H59.158L55.32 33.3173ZM99.7878 30.4086L95.9498 34.2427C93.5676 31.7307 90.656 30.4086 87.4797 30.4086C84.7005 30.4086 82.3183 31.3341 80.4655 33.185C78.6126 35.036 77.5539 37.2836 77.5539 39.9278C77.5539 42.7043 78.4803 44.9519 80.4655 46.935C82.4506 48.9182 84.8328 49.8437 87.7444 49.8437C89.5973 49.8437 91.1854 49.4471 92.5088 48.6538C93.8323 47.8605 94.891 46.6706 95.6851 44.9519H87.3474V39.7956H101.773V40.9855C101.773 43.4975 101.111 45.8774 99.7878 48.1249C98.4643 50.3725 96.7439 52.0913 94.7587 53.2812C92.6412 54.4711 90.259 54.9999 87.4797 54.9999C84.5682 54.9999 81.9213 54.3389 79.5391 53.0168C77.1569 51.6947 75.304 49.8437 73.9806 47.4639C72.6572 45.0841 71.9954 42.5721 71.9954 39.7956C71.9954 35.9615 73.1865 32.7884 75.7011 29.8798C78.6127 26.5745 82.583 24.8557 87.3474 24.8557C89.8619 24.8557 92.1118 25.2523 94.3617 26.1778C96.2145 27.2355 97.935 28.5576 99.7878 30.4086ZM115.537 25.7812H120.963L131.947 54.3389H126.257L124.007 48.3894H112.228L109.978 54.3389H104.287L115.537 25.7812ZM118.184 33.3173L114.346 43.1009H122.022L118.184 33.3173ZM136.58 25.7812H142.403C145.579 25.7812 147.829 26.0456 149.152 26.5745C150.476 27.1033 151.534 28.0288 152.329 29.3509C153.123 30.673 153.52 32.2596 153.52 33.9783C153.52 35.8293 153.123 37.4158 152.196 38.7379C151.27 40.06 149.946 40.9855 148.094 41.6466L154.843 54.3389H148.888L142.403 42.1754H141.873V54.3389H136.447V25.7812H136.58ZM142.006 36.887H143.726C145.447 36.887 146.638 36.6225 147.299 36.2259C147.961 35.8293 148.226 35.036 148.226 33.9783C148.226 33.3173 148.094 32.7884 147.697 32.3918C147.432 31.8629 146.902 31.5985 146.373 31.3341C145.844 31.0697 144.785 31.0697 143.329 31.0697H141.873V36.887H142.006Z" fill="#32352B"/>
<path d="M185.547 32.3918V38.8702C185.547 42.9688 185.018 46.1418 183.959 48.125C182.9 50.1082 181.312 51.8269 178.93 53.1491C176.548 54.4712 173.901 55.1322 170.857 55.1322C168.607 55.1322 166.622 54.7356 164.769 54.0745C162.916 53.2813 161.328 52.3558 160.137 51.0337C158.946 49.7116 158.019 48.3894 157.622 46.8029C157.093 45.3486 156.961 42.7043 156.961 39.0024V32.5241H185.547V32.3918ZM180.253 37.8125H162.254V40.3245C162.254 42.8366 162.519 44.5553 163.048 45.7452C163.578 46.8029 164.637 47.7284 165.96 48.5217C167.284 49.1827 169.004 49.5793 170.989 49.5793C174.033 49.5793 176.415 48.7861 178.003 47.0673C179.459 45.4808 180.253 43.101 180.253 39.6635V37.8125Z" fill="#32352B"/>
<path d="M188.459 26.4423H204.075V31.7307H193.885V36.887H204.075V42.1754H193.885V49.7115H204.075V55H188.459V26.4423ZM209.104 26.4423H214.266L226.574 45.2163V26.4423H232V55H226.839L214.531 36.2259V55H209.104V26.4423Z" fill="#32352B"/>
</g>
<defs>
<clipPath id="clip0_24_5">
<rect width="232" height="55" fill="white"/>
</clipPath>
</defs>
</svg>
