<svg width="106" height="106" viewBox="0 0 106 106" fill="none" xmlns="http://www.w3.org/2000/svg">
<circle cx="53" cy="53" r="53" fill="white"/>
<circle cx="53" cy="53" r="37" fill="#889F8B"/>
<g clip-path="url(#clip0_256_2301)">
<path d="M53.5 77C66.4787 77 77 66.4787 77 53.5C77 40.5213 66.4787 30 53.5 30C40.5213 30 30 40.5213 30 53.5C30 66.4787 40.5213 77 53.5 77Z" fill="#6B7F65"/>
<path d="M60.7967 51.8474L50.921 45.0755C50.4776 44.753 49.9939 44.5918 49.6311 44.5918C48.8653 44.5918 48.4219 45.1964 48.4219 46.1638V60.7959C48.4219 61.8036 48.8653 62.368 49.5908 62.368C49.9939 62.368 50.4373 62.2067 50.8807 61.8842L60.7564 55.1124C61.4013 54.669 61.7641 54.1047 61.7641 53.4597C61.7641 52.8148 61.4416 52.2908 60.7967 51.8474Z" fill="white"/>
</g>
<defs>
<clipPath id="clip0_256_2301">
<rect width="47" height="47" fill="white" transform="translate(30 30)"/>
</clipPath>
</defs>
</svg>
