<svg width="35" height="35" viewBox="0 0 35 35" fill="none" xmlns="http://www.w3.org/2000/svg">
<circle cx="17.5" cy="17.5" r="17.5" fill="#7360F2"/>
<g clip-path="url(#clip0_303_18)">
<path d="M23.9581 17.9629C23.5619 21.2074 21.1696 21.4148 20.7276 21.5629C20.5448 21.6222 18.7924 22.0518 16.6134 21.9185L14.2362 24.4814V21.5333H14.221C11.0362 20.6444 11.1429 17.3407 11.1734 15.6074C11.2038 13.874 11.5391 12.4518 12.5143 11.4888C14.2667 9.91848 17.8629 10.1555 17.8629 10.1555C20.9105 10.1703 22.3581 11.074 22.6934 11.3851C23.8057 12.3333 24.3848 14.6148 23.9581 17.9629ZM23.5162 10.5555C23.12 10.2 21.5048 9.02959 17.9086 9.01477C17.9086 9.01477 13.6724 8.76292 11.6 10.6444C10.4572 11.7851 10.0457 13.4592 10.0153 15.5333C9.96955 17.6074 9.92384 21.5037 13.6876 22.5555V24.1703C13.6876 24.1703 13.6572 24.8222 14.0991 24.9555C14.6172 25.1185 14.9219 24.6148 15.4248 24.0814C15.6991 23.7851 16.08 23.3555 16.3543 23.0296C18.9296 23.2518 20.9105 22.7481 21.1391 22.674C21.6572 22.5111 24.5981 22.1259 25.0857 18.2444C25.5734 14.2444 24.8419 11.6963 23.5162 10.5555Z" fill="white"/>
<path d="M21.2153 18.4518C21.2153 18.4518 20.7277 18.0518 20.4991 17.874C20.2705 17.7111 19.92 17.4889 19.7219 17.3852C19.3715 17.1926 19.0058 17.3111 18.8534 17.5037L18.5486 17.8889C18.3962 18.0815 18.1372 18.0518 18.0762 18.037C17.6191 17.9185 17.1315 17.6518 16.6286 17.1778C16.1258 16.7037 15.821 16.2 15.7143 15.6963L15.6991 15.6666C15.6686 15.4592 15.6991 15.3555 15.7905 15.2074L15.8058 15.1926C16.0191 15 16.4 14.7777 16.461 14.5555C16.6134 14.1703 15.9429 13.3703 15.8515 13.237C15.8515 13.237 15.3639 12.6148 15.1962 12.4963C15.0134 12.3481 14.7239 12.2592 14.4343 12.437H14.4191C13.581 12.9852 13.2915 13.2963 13.3677 13.7703L13.4134 13.9629C13.84 15.2518 14.6477 16.6444 15.8667 17.874C17.0705 19.074 18.381 19.8 19.661 20.3037C19.9962 20.4074 20.3467 20.3185 20.6972 20.0222C20.9715 19.7703 21.1848 19.5037 21.3372 19.2222C21.5048 18.9259 21.4439 18.6444 21.2153 18.4518Z" fill="white"/>
<path d="M19.2191 15.6074C19.1734 15.6074 19.1277 15.5629 19.1277 15.5185C19.1124 15.1778 19.021 14.9259 18.8534 14.7481C18.6858 14.5703 18.4419 14.4815 18.1219 14.4666C18.0762 14.4666 18.0305 14.4222 18.0305 14.3629C18.0305 14.3037 18.0762 14.274 18.1372 14.274C18.5181 14.2889 18.8077 14.4074 19.0058 14.6148C19.2039 14.8222 19.3105 15.1185 19.341 15.5037C19.3258 15.5629 19.28 15.6074 19.2191 15.6074Z" fill="white"/>
<path d="M20.1638 15.9333C20.1029 15.9333 20.0724 15.8889 20.0724 15.8296C20.0876 15.1926 19.8895 14.6444 19.4933 14.2148C19.2952 13.9926 19.0514 13.8296 18.7771 13.7111C18.5029 13.5926 18.1829 13.5185 17.8171 13.4889C17.7714 13.4889 17.7257 13.4444 17.7257 13.3852C17.7257 13.3259 17.7714 13.2963 17.8324 13.2963C18.5943 13.3555 19.2038 13.6222 19.6305 14.0814C20.0571 14.5555 20.2705 15.1333 20.2552 15.8296C20.2705 15.8889 20.2248 15.9333 20.1638 15.9333Z" fill="white"/>
<path d="M21.1391 16.3037C21.0934 16.3037 21.0477 16.2592 21.0477 16.2148C21.0477 15.6518 20.9563 15.1333 20.7886 14.6888C20.621 14.2444 20.362 13.8592 20.0267 13.5333C19.6915 13.2074 19.3105 12.9555 18.8991 12.7925C18.4877 12.6296 18.0153 12.5407 17.5124 12.5407C17.4667 12.5407 17.421 12.4962 17.421 12.4518C17.421 12.3925 17.4667 12.3629 17.5124 12.3629C18.5639 12.3777 19.4477 12.7185 20.1639 13.4148C20.5144 13.7555 20.7886 14.1703 20.9715 14.6444C21.1544 15.1185 21.2458 15.6518 21.2458 16.2444C21.2458 16.2592 21.2001 16.3037 21.1391 16.3037Z" fill="white"/>
</g>
<defs>
<clipPath id="clip0_303_18">
<rect width="15.2381" height="16" fill="white" transform="translate(10 9)"/>
</clipPath>
</defs>
</svg>
