<svg width="35" height="35" viewBox="0 0 35 35" fill="none" xmlns="http://www.w3.org/2000/svg">
<circle cx="17.5" cy="17.5" r="17.5" fill="#33CE62"/>
<g clip-path="url(#clip0_303_17)">
<path d="M23.664 11.3244C22.16 9.82786 20.16 9 18.032 9C13.648 9 10.064 12.5502 10.064 16.9284C10.064 18.3294 10.432 19.6826 11.12 20.8925L10 25L14.224 23.9015C15.392 24.5383 16.704 24.8726 18.032 24.8726C22.416 24.8726 26 21.3224 26 16.9443C26 14.8109 25.168 12.8209 23.664 11.3244ZM18.032 23.5194C16.848 23.5194 15.68 23.201 14.656 22.596L14.416 22.4527L11.92 23.1214L12.592 20.6856L12.432 20.4308C11.776 19.3801 11.424 18.1701 11.424 16.9284C11.408 13.2985 14.384 10.3373 18.032 10.3373C19.808 10.3373 21.456 11.0219 22.72 12.2637C23.968 13.5055 24.656 15.1612 24.656 16.9284C24.656 20.5582 21.68 23.5194 18.032 23.5194ZM21.664 18.5841C21.472 18.4886 20.48 18.0109 20.304 17.9473C20.128 17.8836 19.984 17.8517 19.856 18.0428C19.728 18.2338 19.344 18.6796 19.232 18.8229C19.12 18.9502 18.992 18.9662 18.8 18.8706C18.608 18.7751 17.952 18.5682 17.2 17.8836C16.608 17.3582 16.208 16.7055 16.096 16.5144C15.984 16.3234 16.08 16.2119 16.176 16.1164C16.272 16.0209 16.368 15.8776 16.48 15.7662C16.576 15.6547 16.608 15.5751 16.672 15.4318C16.736 15.3045 16.704 15.1771 16.656 15.0816C16.608 14.9861 16.208 14.0149 16.048 13.6169C15.888 13.2348 15.728 13.2826 15.6 13.2826C15.488 13.2826 15.344 13.2826 15.216 13.2826C15.088 13.2826 14.864 13.3303 14.688 13.5373C14.512 13.7284 13.984 14.2219 13.984 15.193C13.984 16.1642 14.704 17.1035 14.8 17.2468C14.896 17.3741 16.208 19.3801 18.208 20.2398C18.688 20.4468 19.056 20.5582 19.344 20.6537C19.824 20.797 20.256 20.7811 20.592 20.7333C20.976 20.6697 21.776 20.2557 21.936 19.794C22.096 19.3323 22.096 18.9343 22.048 18.8547C22 18.7274 21.872 18.6796 21.664 18.5841Z" fill="white"/>
</g>
<defs>
<clipPath id="clip0_303_17">
<rect width="16" height="16" fill="white" transform="translate(10 9)"/>
</clipPath>
</defs>
</svg>
